<?xml version="1.0" encoding="UTF-8" standalone="no"?>
<svg
   xmlns:dc="http://purl.org/dc/elements/1.1/"
   xmlns:cc="http://creativecommons.org/ns#"
   xmlns:rdf="http://www.w3.org/1999/02/22-rdf-syntax-ns#"
   xmlns:svg="http://www.w3.org/2000/svg"
   xmlns="http://www.w3.org/2000/svg"
   xmlns:sodipodi="http://sodipodi.sourceforge.net/DTD/sodipodi-0.dtd"
   xmlns:inkscape="http://www.inkscape.org/namespaces/inkscape"
   width="40.157"
   height="40.157"
   viewBox="0 0 40.157 40.157"
   version="1.1"
   id="svg4"
   sodipodi:docname="back.svg"
   inkscape:version="0.92.4 (5da689c313, 2019-01-14)">
  <metadata
     id="metadata10">
    <rdf:RDF>
      <cc:Work
         rdf:about="">
        <dc:format>image/svg+xml</dc:format>
        <dc:type
           rdf:resource="http://purl.org/dc/dcmitype/StillImage" />
        <dc:title></dc:title>
      </cc:Work>
    </rdf:RDF>
  </metadata>
  <defs
     id="defs8" />
  <sodipodi:namedview
     pagecolor="#ffffff"
     bordercolor="#666666"
     borderopacity="1"
     objecttolerance="10"
     gridtolerance="10"
     guidetolerance="10"
     inkscape:pageopacity="0"
     inkscape:pageshadow="2"
     inkscape:window-width="1255"
     inkscape:window-height="819"
     id="namedview6"
     showgrid="false"
     inkscape:zoom="11.753866"
     inkscape:cx="16.034966"
     inkscape:cy="15.671326"
     inkscape:window-x="254"
     inkscape:window-y="52"
     inkscape:window-maximized="0"
     inkscape:current-layer="svg4" />
  <path
     d="M 20.078125 0 A 20.079 20.079 0 0 0 0 20.078125 A 20.079 20.079 0 0 0 20.078125 40.158203 A 20.079 20.079 0 0 0 40.158203 20.078125 A 20.079 20.079 0 0 0 20.078125 0 z M 22.964844 12.291016 A 1.50015 1.50015 0 0 1 23.787109 15.017578 L 16.808594 20.078125 L 23.787109 25.140625 A 1.50015 1.50015 0 1 1 22.025391 27.568359 L 13.373047 21.292969 A 1.50015 1.50015 0 0 1 13.373047 18.865234 L 22.025391 12.587891 A 1.50015 1.50015 0 0 1 22.964844 12.291016 z "
     id="ellipse2" />
</svg>
