<svg xmlns="http://www.w3.org/2000/svg" width="85" height="85"><path d="M42.5 0a42.5 42.5 0 1 0 0 85 42.5 42.5 0 0 0 0-85z"/><path fill="#fff" d="M25.37 17.45c-3.62 0-5.99 2.37-5.99 5.48 0 3.04 2.3 5.48 5.85 5.48h.06c3.7 0 6-2.44 6-5.48-.08-3.11-2.3-5.48-5.92-5.48zM56.56 32c-5.62 0-8.14 3.08-9.54 5.24v-4.5H36.44c.14 2.98 0 31.71 0 31.71h10.58v-17.7c0-.95.07-1.9.35-2.57.76-1.9 2.5-3.86 5.43-3.86 3.83 0 5.36 2.91 5.36 7.17v16.97h10.58V46.25c0-9.74-5.22-14.27-12.18-14.27zM20 32.74v31.7h10.58v-31.7H20z"/></svg>