<?xml version="1.0" encoding="UTF-8" standalone="no"?>
<!-- Created with Inkscape (http://www.inkscape.org/) -->

<svg
   xmlns:dc="http://purl.org/dc/elements/1.1/"
   xmlns:cc="http://creativecommons.org/ns#"
   xmlns:rdf="http://www.w3.org/1999/02/22-rdf-syntax-ns#"
   xmlns:svg="http://www.w3.org/2000/svg"
   xmlns="http://www.w3.org/2000/svg"
   xmlns:sodipodi="http://sodipodi.sourceforge.net/DTD/sodipodi-0.dtd"
   xmlns:inkscape="http://www.inkscape.org/namespaces/inkscape"
   width="77.85453mm"
   height="16.136761mm"
   viewBox="0 0 77.85453 16.136761"
   version="1.1"
   id="svg8"
   inkscape:version="0.92.4 (5da689c313, 2019-01-14)"
   sodipodi:docname="logo.svg">
  <defs
     id="defs2" />
  <sodipodi:namedview
     id="base"
     pagecolor="#ffffff"
     bordercolor="#666666"
     borderopacity="1.0"
     inkscape:pageopacity="0.0"
     inkscape:pageshadow="2"
     inkscape:zoom="1.4"
     inkscape:cx="302.41104"
     inkscape:cy="21.391297"
     inkscape:document-units="mm"
     inkscape:current-layer="layer1"
     showgrid="false"
     fit-margin-top="0"
     fit-margin-left="0"
     fit-margin-right="0"
     fit-margin-bottom="0"
     inkscape:window-width="2498"
     inkscape:window-height="1057"
     inkscape:window-x="54"
     inkscape:window-y="-8"
     inkscape:window-maximized="1" />
  <metadata
     id="metadata5">
    <rdf:RDF>
      <cc:Work
         rdf:about="">
        <dc:format>image/svg+xml</dc:format>
        <dc:type
           rdf:resource="http://purl.org/dc/dcmitype/StillImage" />
        <dc:title />
      </cc:Work>
    </rdf:RDF>
  </metadata>
  <g
     inkscape:label="Camada 1"
     inkscape:groupmode="layer"
     id="layer1"
     transform="translate(-27.985104,-89.119088)">
    <path
       style="color:#000000;font-style:normal;font-variant:normal;font-weight:normal;font-stretch:normal;font-size:10.58333302px;line-height:1.25;font-family:sans-serif;font-variant-ligatures:normal;font-variant-position:normal;font-variant-caps:normal;font-variant-numeric:normal;font-variant-alternates:normal;font-feature-settings:normal;text-indent:0;text-align:start;text-decoration:none;text-decoration-line:none;text-decoration-style:solid;text-decoration-color:#000000;letter-spacing:0px;word-spacing:0px;text-transform:none;writing-mode:lr-tb;direction:ltr;text-orientation:mixed;dominant-baseline:auto;baseline-shift:baseline;text-anchor:start;white-space:normal;shape-padding:0;clip-rule:nonzero;display:inline;overflow:visible;visibility:visible;opacity:1;isolation:auto;mix-blend-mode:normal;color-interpolation:sRGB;color-interpolation-filters:linearRGB;solid-color:#000000;solid-opacity:1;vector-effect:none;fill:#ffffff;fill-opacity:1;fill-rule:nonzero;stroke:none;stroke-width:0.26458332;stroke-linecap:butt;stroke-linejoin:miter;stroke-miterlimit:4;stroke-dasharray:none;stroke-dashoffset:0;stroke-opacity:1;color-rendering:auto;image-rendering:auto;shape-rendering:auto;text-rendering:auto;enable-background:accumulate"
       d="m 98.556641,89.105469 0.06836,0.171875 -1.025391,0.146484 -0.197265,-0.304687 h -0.128906 l -2.603516,0.521484 -0.765625,0.08398 -0.01172,-0.02539 -0.0293,0.0293 h -0.0098 c -0.0056,0 -0.01134,1.75e-4 -0.02734,0.002 -0.008,8.89e-4 -0.018,0.0023 -0.0332,0.0078 -0.0064,0.0023 -0.01726,0.0076 -0.02148,0.0098 l -0.09375,-0.02734 0.03906,0.08398 c -0.002,0.0039 -0.0036,0.0068 -0.0059,0.01172 l -1.888672,1.955078 -0.378907,0.08008 -0.0098,0.002 c -0.0064,8.19e-4 -0.01188,-0.0013 -0.01758,0 l -0.0039,-0.002 -0.0059,-0.0039 -0.002,0.0039 h -0.07617 l -0.02539,0.05664 -0.123046,0.02344 0.08594,0.0625 -0.757813,1.732421 -0.111328,0.01367 0.08008,0.06055 -0.830078,1.945313 c -0.005,0.0084 -0.0093,0.01043 -0.01367,0.02344 -0.0031,0.0092 -0.0078,0.03254 -0.0078,0.0332 -6.1e-5,6.67e-4 0.0018,0.03851 0.002,0.03906 3.6e-5,1.79e-4 0.0042,0.0086 0.0059,0.01172 l -0.002,0.05469 -0.02148,0.05078 0.02148,-0.0039 -0.08203,2.50586 -0.05859,-0.002 0.05664,0.07031 -0.002,0.04102 0.0078,0.0293 -0.03125,0.05469 0.04883,0.002 0.847657,2.96875 0.06055,0.0625 0.878906,0.45117 1.966797,2.05664 h 0.06055 l 1.378906,0.35547 0.07227,0.0254 0.142578,0.14453 -0.02148,-0.0996 1.626953,0.58985 0.253907,0.006 0.04883,0.0176 -0.01172,-0.0156 1.447266,0.0371 h 0.02539 0.03906 l 0.140625,-0.0371 0.173828,0.006 -0.05469,-0.0352 1.410156,-0.36328 h 0.0293 l 1.80859,-0.64844 2.97852,-2.72851 0.002,-0.002 c 0.0231,-0.0231 0.0357,-0.0495 0.0449,-0.0723 0.002,-0.004 0.007,-0.008 0.008,-0.0117 0.008,-0.0252 0.008,-0.0547 0.008,-0.0547 v -0.0156 l -0.0566,-0.27149 0.23632,-0.33398 0.006,0.01 0.008,-0.0312 0.12304,-0.17383 v -0.0469 l 0.58789,-2.191404 0.0527,-0.0293 -0.0527,-0.03516 v -0.002 -0.0059 l -0.008,-0.105469 0.0156,-0.05859 -0.0195,0.01172 -0.28124,-3.601563 0.0176,-0.01172 -0.0176,-0.01172 v -0.501953 c 0,-0.0056 -1.8e-4,-0.01134 -0.002,-0.02734 -8.9e-4,-0.008 -0.002,-0.01995 -0.008,-0.03516 -0.003,-0.0076 -0.0114,-0.02494 -0.0117,-0.02539 -2.7e-4,-4.46e-4 -0.0211,-0.02504 -0.0215,-0.02539 -3.6e-4,-3.52e-4 -0.025,-0.02121 -0.0254,-0.02148 -3.5e-4,-2.11e-4 -0.0113,-0.0061 -0.0195,-0.0098 l -2.71875,-2.96875 h -0.0527 l -0.0156,-0.0059 -0.0527,-0.05859 -0.008,0.03125 -0.45703,-0.201171 -0.0274,-0.222657 -0.0879,0.1875 -3.121091,-1.201172 -0.0039,-0.002 -0.06836,-0.07031 -0.0957,0.01367 z M 49.058594,89.1875 v 0.142578 l -0.601563,3.283203 -0.84375,1.41211 -0.05664,-0.03906 0.01367,0.109375 v 0.002 0.0059 c -0.0099,0.01198 -0.01999,0.02042 -0.02734,0.04492 -0.0051,0.01709 0.002,0.03071 0.0039,0.04883 l -0.591797,2.169922 v 0.002 l -0.0078,0.0293 -1.132813,1.708984 -0.06641,-0.04883 0.01563,0.125 v 0.002 l 0.002,0.0078 c -0.0082,0.0088 -0.02705,0.01113 -0.03125,0.01953 -0.0186,0.0372 -0.01563,0.07031 -0.01563,0.07031 l 0.0039,-0.03711 -0.535156,1.865236 -0.01172,-0.0156 v 0.0566 l -0.05664,0.19727 -1.296875,2.04297 c -4.47e-4,2.7e-4 -0.02699,0.0211 -0.02734,0.0215 -3.53e-4,3.6e-4 -0.01926,0.0249 -0.01953,0.0254 -2.7e-4,4.5e-4 -0.01093,0.0178 -0.01367,0.0254 -0.0055,0.0152 -0.0069,0.0272 -0.0078,0.0352 -3.81e-4,0.003 1.91e-4,0.003 0,0.006 l -0.03711,0.13867 -0.02148,0.0332 0.01367,-0.002 -0.564453,2.06836 v 0.0625 0.0273 l -0.11914,0.1543 0.11914,-0.0312 v 0.006 h 0.154297 0.02539 l 1.193359,-0.0684 1.330078,0.0684 h 0.02539 0.0293 l 1.121094,-0.13086 -0.01953,0.0312 0.111328,-0.043 0.142578,-0.0156 h 0.03516 l 0.498047,-0.15821 h 0.01758 l 0.0039,-0.006 0.02148,-0.008 v -0.041 l 1.039063,-2.21094 1.695312,-0.15039 0.05273,0.004 0.02734,0.0215 0.0039,-0.0176 1.716797,0.15039 h 0.0332 l 2.011718,-0.15234 0.398438,0.91797 -0.02148,0.0215 0.02734,0.008 0.292969,1.64649 -0.002,-0.0234 c 0,0.0125 0.01537,0.0185 0.01953,0.0312 l -0.04492,0.0801 h 0.09375 c 0.0078,0.007 0.01017,0.0236 0.01758,0.0273 l 0.0293,0.15039 0.07617,-0.13281 h 1.126953 l 0.04102,0.12109 0.05469,-0.125 1.173828,-0.15234 1.414062,0.31445 h 0.04883 l 0.902344,-0.1582 h 0.144531 v -0.0762 l 0.02148,-0.004 -0.02148,-0.0332 v -0.043 -0.0391 l -0.0059,-0.0156 -0.681641,-2.59375 -0.921875,-1.51953 -0.01953,-0.0215 -0.708984,-1.287112 0.07813,-0.07227 -0.109375,-0.0078 -0.02734,-0.06055 0.0059,-0.08008 -0.0293,0.02734 -1.298828,-2.806641 c 1.95e-4,-7.02e-4 0.0019,-0.0039 0.002,-0.0039 6.1e-5,-6.06e-4 -0.0018,-0.03645 -0.002,-0.03711 -1.1e-4,-6.61e-4 -0.0035,-0.01868 -0.0059,-0.02539 -0.0024,-0.0067 -0.0055,-0.01098 -0.0078,-0.01563 -0.0023,-0.0046 -0.0018,-0.0021 -0.0039,-0.0059 l -0.580078,-1.337891 -0.3125,-2.085938 c 0,0 0.001,-0.03311 -0.01758,-0.07031 -0.0186,-0.0372 -0.08133,-0.08398 -0.136719,-0.08398 l 0.09961,0.04688 -0.837891,-0.988282 0.08203,-0.117187 -0.101562,0.02734 -0.148438,-2.138671 v -0.0293 l 0.09961,-0.134766 -0.09961,0.02344 v -0.0078 h -0.0625 l -0.0098,-0.123047 -0.08984,0.123047 h -0.0098 l -1.205078,0.289063 -1.171875,-0.257813 0.0098,-0.01953 -0.0625,0.0078 -0.0918,-0.01953 h -0.04492 L 50.597656,89.5 49.251953,89.1875 h -0.03711 z m -13.300782,0.109375 -0.03516,0.205078 h -2.607422 c -0.0067,-0.0024 -0.02278,-0.0077 -0.02344,-0.0078 -6.62e-4,-1.11e-4 -0.0365,-6.1e-5 -0.03711,0 -3.41e-4,3.4e-5 -0.01432,0.004 -0.02734,0.0078 h -0.002 l -0.01953,0.0039 -0.02734,-0.01563 -0.002,0.02148 -0.220703,0.03711 H 32.6875 l 0.01563,0.0098 -0.955078,0.164062 c -0.0047,-0.0011 -0.01142,-0.0019 -0.01172,-0.002 -6.61e-4,-1.1e-4 -0.0365,-0.002 -0.03711,-0.002 -1.77e-4,1.8e-5 -0.008,0.0023 -0.01367,0.0039 l -1.804688,-0.3125 -1.148437,0.152344 -0.05469,-0.21875 -0.07422,0.224609 -0.07617,-0.04492 0.02734,0.113281 c -0.0011,0.0014 -0.0027,4.62e-4 -0.0039,0.002 l -0.201172,0.02539 0.154297,0.0918 -0.292968,0.757813 v 0.04687 0.0293 l 0.33789,3.890625 -0.0098,0.04687 -0.03125,0.04102 0.02148,0.002 -0.324219,1.441407 0.0332,0.08984 -0.04297,0.189454 0.08594,-0.07227 0.265625,0.732422 -0.07227,-0.01172 0.103516,0.09961 v 0.002 c -0.0012,0.0057 -0.0035,0.01358 -0.0039,0.01758 -3.79e-4,0.0034 1.9e-4,0.0033 0,0.0059 l -0.111328,0.06445 0.09961,0.01758 -0.01367,0.115235 -0.04492,0.08984 0.03711,-0.02148 -0.398438,3.269532 v 0.0312 0.0508 l 0.02539,0.0566 -0.01758,0.13477 0.05664,-0.041 L 28.5,101.5 l -0.01367,0.004 0.02734,0.0254 v 0.002 0.002 c -0.0018,0.009 -0.0039,0.0194 -0.0039,0.0195 0,1.3e-4 0.0041,0.0149 0.0078,0.0273 l -0.5,2.20898 -0.08203,-0.0469 0.04883,0.13476 -0.169922,0.01 0.169922,0.10742 v 0.0234 l 0.3125,0.86328 0.01953,0.0195 c 0.01129,0.0113 0.0214,0.0263 0.05859,0.0449 0.0372,0.0186 0.07074,0.0176 0.08203,0.0176 h 1.09961 l 2.130859,0.1582 1.464844,-0.1582 c 0.0077,0 0.01161,-0.01 0.01953,-0.0117 l 0.164063,0.0762 -0.05469,-0.13281 0.257812,-0.0273 -0.242187,-0.10938 -0.01758,-0.0566 -0.513672,-1.80469 0.150391,-2.68164 1.4375,0.17578 -0.0293,0.0234 0.09375,-0.0156 0.148437,0.0176 2.462891,3.70507 0.300781,0.85938 -0.0078,0.0547 0.02344,-0.01 0.002,0.004 h 0.115235 l 3.1875,0.0918 1.289062,-0.0918 h 0.378906 0.21875 l -0.646484,-1.61133 0.117187,-0.15625 -0.164062,0.0469 -0.15625,-0.33007 -1.208984,-1.61914 -1.556641,-1.726568 0.664063,-0.332031 -0.01953,0.09961 0.150391,-0.166016 0.0059,-0.002 0.04883,0.08984 0.03125,-0.13086 v -0.002 c 0.0057,-0.002 0.0056,0.0011 0.01172,-0.002 0.02871,-0.01435 0.05207,-0.06183 0.06641,-0.105469 0.0042,-0.0129 0.01953,-0.01861 0.01953,-0.03125 l -0.03516,0.08984 1.773438,-1.912109 v -0.06641 l 0.0059,-0.04102 0.05078,-0.05664 -0.04297,-0.0039 0.441406,-3.179688 -1.265625,-2.55664 0.01758,-0.0078 -0.03125,-0.01758 -0.01172,-0.02148 c -1.1e-4,-9.94e-4 -0.0018,-0.0028 -0.002,-0.0039 -5.65e-4,-0.0046 -0.0023,-0.01116 -0.0039,-0.01758 l 0.06445,-0.130859 -0.11914,0.05273 c -0.003,-0.0023 -0.0077,-0.0058 -0.0078,-0.0059 -4.46e-4,-2.7e-4 -0.01779,-0.009 -0.02539,-0.01172 -0.008,-0.0029 -0.01172,-0.0027 -0.01758,-0.0039 l -2.417968,-1.355469 -0.207032,-0.02539 -2.214844,-0.269532 z m 32.773438,0.002 -0.07422,0.04883 -0.0098,-0.002 h -0.03711 -0.07813 l -0.02344,0.02344 -0.07813,-0.01953 0.02344,0.04687 -0.787109,0.242188 -3.953125,-0.136719 c 0.03013,0.0038 0.06658,0.02255 0.0332,0.0059 -0.01171,-0.0059 -0.0407,-0.0045 -0.06641,-0.0059 l -0.07227,-0.07617 -0.01563,0.07617 h -0.646484 l 0.06055,-0.07227 -0.216797,0.07227 h -0.07227 -0.02344 -0.03125 l -0.02344,-0.02148 -0.0059,0.02734 -0.128906,0.04102 h -0.09375 l 0.02539,0.02148 -0.232422,0.07422 0.03906,-0.0059 c -0.05539,0 -0.120073,0.04679 -0.138672,0.08398 -0.0031,0.0061 1.02e-4,0.0059 -0.002,0.01172 -4.04e-4,0.0011 -0.0016,8.37e-4 -0.002,0.002 L 61.4375,90.666016 V 90.71875 90.75 l 0.291016,2.226562 -0.449219,3.310547 v 0.04883 l 0.0332,0.125 -0.01172,0.08984 0.0293,-0.02539 0.398438,1.476562 -0.154297,2.681637 -0.142578,0.26563 h -0.07813 l -0.01172,0.23047 -0.0918,0.15625 0.08594,-0.043 -0.05859,1.07812 0.160156,2.28321 v 0.13867 l 0.595703,0.0566 0.002,0.008 0.002,-0.008 1.173829,0.11328 h 0.0293 0.02148 0.478515 l -0.0059,0.0547 0.08789,-0.0547 h 0.01758 l 0.02148,0.002 0.0625,0.0762 0.0078,-0.0664 0.894531,0.12305 -0.02148,0.0508 0.107421,-0.0391 0.101563,0.0137 0.863281,-0.29297 0.06836,0.16015 0.04297,-0.19921 0.07031,-0.0234 v -0.10352 l 0.226562,-1.03906 v -0.0371 -0.0254 l -0.0039,-0.10547 v -0.004 l -0.126953,-2.88476 2.421875,0.14648 0.06055,0.1875 0.06055,-0.18945 1.679687,-0.27344 0.0293,0.19727 0.08594,-0.21484 0.0098,-0.002 2.082031,-0.908201 0.15625,0.185547 -0.03711,-0.199219 h 0.002 l 0.04687,-0.142578 1.730469,-2.6875 -0.002,-0.04492 -0.316407,-4.035156 v -0.0625 l -0.02734,-0.03516 0.002,-0.01563 -0.01172,0.0039 -0.966797,-1.259766 -0.06641,-0.06836 h -0.03906 l -0.06836,-0.04492 -0.02539,-0.0332 -0.002,0.01563 -1.548828,-1.019532 0.0293,-0.15625 -0.119141,0.111329 -2.796874,-0.660157 z m 19.371094,0.113281 -2.603516,0.08984 h -0.002 c -0.0067,-0.0024 -0.02473,-0.0077 -0.02539,-0.0078 -6.61e-4,-1.11e-4 -0.0365,-6.1e-5 -0.03711,0 -2.3e-5,2e-6 -0.0018,-4.1e-5 -0.002,0 l -0.0059,-0.0059 -0.0039,0.0098 c -0.01342,0.0038 -0.03476,0.0096 -0.03516,0.0098 -5.29e-4,2.65e-4 -0.04254,0.0327 -0.04297,0.0332 -1.23e-4,1.43e-4 -0.0031,0.0072 -0.0059,0.01172 l -0.160156,0.0039 0.107422,0.09766 -1.339844,2.701172 -0.0293,-0.02148 -0.002,0.06641 -0.01953,0.01953 -0.189453,0.0039 0.128907,0.09766 -0.195313,0.125 0.154297,-0.0039 -0.828125,2.275391 -0.244141,0.134765 -0.01367,-0.140625 -0.03516,0.07031 -1.296875,-2.222656 v 0.01367 c 0,-0.05539 -0.02003,-0.08376 -0.0332,-0.103516 -0.0066,-0.0099 -0.0084,-0.01148 -0.01367,-0.01758 l 0.01758,-0.07031 -0.05664,0.02148 -0.146485,-0.179688 -0.02344,-0.04102 v 0.01172 l -0.267578,-0.328125 0.01172,-0.002 -0.0293,-0.02148 -0.08789,-0.107422 -0.0078,-0.01758 0.02539,-0.05859 -0.05078,0.0078 -0.802734,-1.695313 -0.339844,-0.400391 0.09375,-0.07422 -0.166016,-0.0059 -0.05078,-0.05078 -1.902344,-0.07031 -0.04883,-0.002 -0.140625,-0.113281 0.02344,0.109375 -1.492188,-0.05859 c -0.0031,-0.0014 -0.006,-0.0025 -0.0098,-0.0039 -0.0067,-0.0024 -0.02278,-0.0077 -0.02344,-0.0078 -6.62e-4,-1.11e-4 -0.0365,-6.1e-5 -0.03711,0 -2.96e-4,2.9e-5 -0.01197,0.0045 -0.02344,0.0078 -0.0037,0.0011 -0.0044,9.56e-4 -0.0078,0.002 l -1.03125,0.134766 h -0.02539 l -0.169922,-0.13086 0.04883,0.140626 v 0.06836 l -0.08594,0.01172 0.08594,0.06445 v 0.002 0.04492 l 0.755859,2.08789 c -1.76e-4,7.17e-4 -0.0039,0.0325 -0.0039,0.0332 0,7.05e-4 0.0037,0.03249 0.0039,0.0332 1.77e-4,7.16e-4 0.0062,0.01981 0.0098,0.02734 0.0071,0.01506 0.01409,0.02445 0.01953,0.03125 0.01089,0.01361 0.01584,0.01779 0.02148,0.02344 l 1.53125,1.550781 -0.01758,0.0059 0.06055,0.03906 0.05859,0.05859 v 0.02344 l 0.05273,0.05469 1.541015,2.142578 0.908203,2.49414 0.04883,0.04883 0.03125,0.02344 0.07227,0.203125 0.0332,-0.119141 0.613282,0.476563 -0.253907,0.976565 -0.101562,-0.0215 0.08008,0.125 v 0.0215 0.0254 l 0.134765,3.43164 -0.361328,1.05859 v 0.0449 0.0215 l -0.02734,0.0352 0.02734,0.006 v 0.0645 l 1.335938,0.32031 h 0.04687 l 0.121094,-0.0156 0.03711,0.01 -0.0059,-0.0137 1.021484,-0.12305 0.0078,0.0625 0.06055,-0.0723 0.03906,-0.004 0.01367,0.002 0.06836,0.0391 -0.002,-0.0332 1.537109,0.14844 h 0.02539 l 0.06445,0.0762 0.02344,-0.0859 0.863281,-0.15039 -0.02344,0.002 c 0.01613,0 0.02474,-0.0168 0.04102,-0.0234 l 0.07227,0.0273 -0.0059,-0.0566 0.275391,-0.041 -0.230469,-0.0957 -0.3125,-2.54492 0.08789,-3.503904 0.625,-0.603516 0.0078,0.002 -0.002,-0.0078 0.0293,-0.02734 0.05469,-0.144531 0.02148,-0.02148 -0.01172,-0.002 L 86.097656,96.5 v -0.0039 l 3.003906,-4.257813 0.154297,-0.02344 -0.111328,-0.0625 1.107422,-2.214844 v -0.05469 -0.05859 l 0.04687,-0.0957 -0.06055,0.01563 -2.324219,-0.332032 z m 9.322265,0.03125 0.0059,0.0078 -0.06836,0.0059 z m -47.816406,0.117188 0.962891,0.220703 -0.421875,2.335938 z m 48.740235,0.111328 -0.636719,0.439453 0.123047,-0.376953 0.0957,-0.01367 z m 0.568359,0.0078 0.08594,0.208984 -0.689453,0.208984 z m -47.210938,0.0098 -1.173828,2.253906 0.232422,-1.292968 0.140625,-0.851563 z m 0.462891,0.02344 0.953125,0.201171 -0.634766,1.806641 -0.210937,-1.292969 z m 16.755859,0.02734 2.244141,0.533204 -1.326172,1.287109 z m 19.226563,0.01172 1.330078,0.175781 -2.150391,0.570313 z m -0.501953,0.002 -0.919922,0.853516 -0.884766,-0.804688 z m -57.679688,0.002 0.220703,0.578125 -0.841796,-0.501953 z m 24.201172,0.0039 -1.181641,1.609375 0.5,-1.441407 z m -23.833984,0.02148 1.123047,0.175781 -0.800782,0.484375 0.0039,-0.04492 -0.06445,0.08203 -0.238282,-0.642578 z m 67.144531,0 -0.121094,0.378906 -0.05273,0.169922 -1.482422,-0.435547 0.179688,-0.01367 z M 33.662109,89.8125 h 1.951172 l -0.1875,1.035156 z m 29.251953,0 h 0.365235 l -0.05469,0.273438 z m 12.65625,0.0078 1.292969,1.525391 -1.878906,-1.443359 z m -11.708984,0.0039 2.480469,0.08789 -1.972656,0.478516 z m 12.125,0.002 1.203125,0.05078 0.337891,1.458985 0.101562,0.433593 z m -7.787109,0.0098 -0.357422,2.857421 L 66.375,91.039062 Z m -35.337891,0.0059 -0.04297,0.341797 -0.0957,0.746094 -0.728515,-0.931641 z m 3.197266,0 1.902344,0.240234 -0.478516,0.9375 -0.462891,0.908203 z m 41.748047,0.05469 0.933593,0.03711 -0.261718,0.207031 -0.1875,0.140625 z m -44.617188,0.02148 1.851563,1.064453 -2.007813,0.158203 z m 52.115235,0 0.96289,0.871093 -2.066406,1.300782 z m 14.353515,0.0078 0.742187,0.291016 -0.503906,-0.0957 z m -45.425781,0.0293 0.125,1.705078 -0.435547,0.126953 -1.267578,0.316407 0.775391,-1.058594 z m 8.363281,0.01563 0.492188,0.435547 -0.769532,0.726562 z m 0.972656,0.0078 0.230469,0.24414 0.09375,0.107422 -0.382812,-0.05859 z m 15.601563,0.04102 0.09766,0.119141 -0.357422,0.07617 z m -50.244141,0.04492 0.773438,0.453125 0.36914,0.22461 -0.01172,0.0059 0.0293,0.0078 -0.773438,0.955079 z m 2.748047,0.01758 0.267578,0.355469 v 0.002 l 0.472656,0.609375 -0.810546,-0.1875 -0.863282,-0.214844 z m 35.246094,0.02734 -0.06445,0.05859 -0.783203,0.675781 -1.083985,-0.277344 z m 22.884766,0.01953 -0.892579,1.806641 -1.9375,-1.080078 z m -12.234376,0.002 0.298829,0.240235 0.193359,0.148437 -0.08008,0.06055 h 0.111328 l -0.183594,0.990234 -0.28125,-1.171874 z m 16.595704,0.0078 1.136718,0.328125 -0.443359,1.136719 z m -0.34961,0.01953 0.796875,1.6875 -2.373047,-0.07422 z m -44.59375,0.0039 0.523438,2.59961 -0.66211,-0.140625 -0.302734,-0.0625 z m 49.796875,0.01758 0.0332,0.01172 -0.115234,0.01172 z m -63.144531,0.01953 0.695312,1.53125 -0.673828,-0.548828 0.01758,-0.002 -0.06445,-0.03711 -0.08008,-0.06445 0.13086,-0.09766 -0.15625,0.01172 0.01758,-0.113282 0.02734,-0.0625 -0.01758,0.01367 z m 26.302734,0.05273 -0.205078,0.904297 -0.203125,-0.417969 z m 12.72461,0.0059 2.419922,1.853516 -1.869141,-0.291016 z m -46.259766,0.03125 0.177734,0.71875 -0.263671,-0.460937 z m 9.845703,0.01953 0.876953,0.480468 0.902344,0.507813 -1.33789,0.634766 -0.0957,-0.367188 z m 30.185547,0.06055 0.002,0.0039 0.716797,1.453125 -0.433594,0.916016 z m -16.898437,0.06445 0.04102,0.261718 0.251953,1.558594 -0.519531,0.166016 -0.15625,0.03906 z m 27.703125,0.0059 L 80,91.511719 78.689453,90.587891 Z m -8.064454,0.002 1.388672,0.919922 -2.138672,2.855469 z m 28.136719,0.02539 -0.740234,1.367187 -1.207031,-1.169922 z m -48.142578,0.08008 -0.367187,2.003906 -0.208985,0.04883 -0.554687,0.134766 z m 48.917967,0 0.0684,0.01367 -0.0215,0.0332 z m -0.458982,0.0039 0.248042,0.25 -0.160152,0.132813 -0.546875,0.464844 0.25,-0.478516 z m -4.041016,0.0078 1.216797,0.121094 -0.0059,0.03516 -0.0293,0.08984 0.01758,-0.01172 -0.0293,0.177734 -0.19336,1.404297 z m 4.595708,0.0059 0.33593,0.06445 -0.3164,0.02148 z m -37.027349,0.0039 0.404297,0.07227 -0.93164,0.433594 0.517578,-0.496094 0.0059,0.0059 z m -25.169922,0.05078 0.423829,1.482421 -0.644532,0.646485 -0.333984,0.332031 z m 32.800782,0.04883 -0.671875,3.49414 -0.257813,-0.992187 -0.341797,-1.302734 z m 24.533203,0.0625 0.978515,1.855469 -1.453125,-0.650391 0.01172,-0.03125 0.002,-0.002 0.41211,-1.0625 z m -31.080078,0.02344 0.714843,0.183594 0.625,0.167969 -0.757812,0.833984 -0.582031,0.628906 z m 13.904296,0.01367 1.59375,1.134766 -1.841796,0.283203 z m -9.978515,0.03516 0.05469,0.47461 0.22461,1.832031 L 68.126953,92.949219 68.248047,92 Z m -4.236328,0.01172 v 1.882813 L 62.394531,91.636719 63.25,91.246094 v -0.002 z m 33.166015,0.04297 1.228516,1.193359 -1.478516,0.605469 0.08398,-0.675781 z m 4.449216,0.0293 -0.0312,0.06445 -0.22461,-0.04687 z m 0.46875,0.05469 0.22266,0.08398 -0.10156,0.335937 -0.0508,0.201172 z m -71.435544,0.06055 1.861328,0.453125 -0.01953,0.478516 -0.0332,0.912109 z m 69.757814,0.02539 0.85742,0.18164 -0.7168,0.449219 -0.0723,-0.314453 0.002,0.002 z m -14.156251,0.04102 0.265625,1.238282 -2.298828,0.05273 z m 0.339843,0.04102 1.697266,0.957031 -1.460937,0.21875 -0.08594,-0.396484 z m -49.003906,0.109375 -0.396484,1.716797 -0.171875,-0.576172 0.02734,-0.0098 -0.0293,-0.02539 z m 62.544924,0.0078 0.13672,0.613282 -0.953128,0.736328 z m -69.859377,0.01758 0.451172,0.826171 0.482422,0.867188 -0.419922,-0.191406 -0.640625,-0.320313 z m 72.304687,0.0098 1.99414,2.166016 -2.28711,-1.039063 0.0879,-0.386718 z m -72.638671,0.01367 -0.06445,0.636719 -0.03125,0.371094 -0.511719,-0.248047 z m -1.515625,0.002 0.492187,0.847657 -0.314453,1.357421 z m 6.419922,0.04492 -2.076172,1.548828 0.03516,-0.898437 0.01758,-0.490235 0.07422,-0.0059 0.01758,0.0039 -0.0039,-0.0059 z m 0.611328,0.05078 1.058594,0.882813 -1.66211,0.554687 0.03906,-0.08984 0.002,-0.002 z M 101.75,91.375 l 0.21875,0.671875 0.0449,0.164063 -1.03515,-0.335938 z m -35.869141,0.144531 -0.265625,1.632813 -0.998046,-0.25 z m 33.824219,0.06445 -0.455078,0.759766 -0.207031,0.349609 -0.02148,-0.375 v -0.138671 z m -64.539062,0.03125 -0.546875,1.302735 -1.322266,0.09766 z m 26.705078,0.01953 0.01172,0.0059 0.002,0.0059 -0.0059,0.05078 z m 4.595703,0.01367 0.01563,0.01758 0.865234,0.974609 -0.699218,-0.302734 z M 40.296875,91.667969 39.515625,93.25 39.041016,92.230469 Z m -9.244141,0.01953 1.359375,1.388672 -0.470703,0.04492 0.03711,-0.105469 -0.136719,0.101563 z m 42.0625,0.03125 0.607422,0.802734 -0.787109,0.242188 z m -6.947265,0.05664 0.177734,0.630859 -0.335937,0.425781 z m 25.236328,0.07813 -0.002,0.002 c -0.0066,0.002 -0.01938,-7.5e-5 -0.02344,0.002 -0.02544,0.01272 0.0053,0.0019 0.02539,-0.0039 z m -18.640625,0.08789 -0.142578,0.964844 -1.375,1.076172 z m -10.458984,0.0332 0.957031,0.574219 0.77539,0.470703 -1.148437,1.050781 L 62.486328,92.625 Z m -8.167969,0.07031 -0.708985,1.013672 -0.820312,-0.611328 z m 38.15625,0.05664 2.214843,0.05273 -1.021484,1.107422 z m 8.511721,0.05078 1.08984,0.36914 -0.46094,0.324219 -0.50195,0.333985 -0.0371,-0.265626 z m -60.414065,0.0293 -0.238281,2.205078 -0.460938,-0.804688 z m 39.732422,0.01563 -0.34375,0.765625 -1.234375,-0.515625 z m -25.447266,0.0059 0.5625,0.652344 -0.5625,0.93164 z m 45.826169,0.02539 0.125,0.970703 0.006,0.05469 -1.287107,-0.146484 z m -8.986325,0.02539 1.552734,1.125 -2.160156,0.230469 z m -37.150391,0.0059 v 1.707031 l -0.710937,-0.710938 z m 40.707032,0.0059 1.472656,0.658203 -1.316406,0.761719 z m -54.107422,0.0293 0.798828,1.582031 -0.416016,0.755859 z m 39.470703,0.01172 0.285156,0.384765 -0.355469,0.138672 -0.216796,0.07617 z m -51.078125,0.0059 0.546875,0.28125 -0.900391,1.201172 0.07813,-0.357422 z m 47.140625,0.0039 1.330078,0.212891 0.150391,0.451172 z m 22.203125,0.01758 0.0332,0.515625 0.01172,0.195313 -1.25586,-0.212891 z m -3.951172,0.05078 0.148438,1.318359 -1.091797,-0.28125 z m -6.509766,0.03711 -1.839843,1.203125 0.574218,-1.023438 z m -12.210937,0.03516 1.771484,0.791016 -0.761719,0.232422 z m -13.910156,0.02734 0.253906,0.9375 -0.306641,-0.476563 z m 7.324218,0.0039 0.0625,0.886719 -0.416015,-0.138672 z m -30.74414,0.0059 0.101562,0.814453 0.183594,1.769531 -1.380859,-1.488281 z m -1.796875,0.01953 0.142578,0.478516 0.117187,0.396484 -1.787109,-0.375 0.212891,-0.07031 z m 3.769531,0.01367 0.378906,2.371094 -0.417969,-0.109376 -0.201171,-0.04297 z m 11.349609,0.07031 -0.263672,1.289063 -0.365234,-1.09375 0.521484,-0.164063 z m 34.570313,0.01953 -0.04102,0.06836 -0.671875,1.199219 -1.607422,-1.214844 z m -20.019531,0.02344 0.791015,0.339844 -1.238281,0.179687 z m 11.642578,0.03125 0.910156,0.388672 -0.765625,0.04883 z m 23.986326,0.04492 1.16602,2.314453 -2.2793,-1.578125 z m -49.746092,0.01367 0.808594,0.613281 -0.361328,1.335938 -0.138672,0.507812 z m -22.167969,0.04102 1.166016,0.548828 -0.683594,0.521485 -0.61914,0.457031 0.0625,-0.701172 z m 43.546875,0.07422 -0.160156,1.560547 -0.691406,-1.302734 0.455078,-0.134766 0.002,-0.002 z m 10.134766,0.0059 1.724609,1.289063 -1.800781,1.726563 0.03711,-1.464844 z m -35.142578,0.03125 0.652344,0.15625 h 0.002 l 0.283203,0.05859 -0.335938,0.988282 -0.195312,0.599609 z m 53.828128,0.03711 2.42773,1.507812 -1.24414,0.859375 z m -51.900394,0.0293 -1.080078,1.417969 0.431641,-1.257813 z m 37.232422,0.02734 -1.873047,2.039063 -0.01563,-0.572266 v -0.220703 z m -7.224609,0.03516 -0.498047,1.892578 -0.248047,-1.595703 z m 16.21289,0.06641 0.02539,0.0039 0.130859,0.05859 -0.02148,-0.04102 1.705078,0.269532 0.01172,0.207031 0.08984,-0.152344 1.541014,1.021484 1.03125,2.083985 0.0898,1.503906 -0.67382,1.539063 -1.515628,1.080074 v 0.006 l -1.28711,0.58203 -1.201171,-0.15039 -1.777344,-1.03125 -1.246094,-2.009762 0.173828,-1.521484 0.0059,0.0039 -0.0039,-0.02539 0.02344,-0.203125 v -0.02734 l 0.460937,-1.25 0.666016,-0.96875 0.04687,-0.06836 v 0.01367 l 1.636719,-0.910156 0.06836,0.125 z m -57.892578,0.0098 0.25586,0.541015 -0.107422,0.728516 -0.0078,0.04687 -0.002,-0.01953 z m -9.164062,0.0039 -0.09375,1.384765 -0.832031,-0.111328 0.203124,-0.271484 z m 18.628906,0.0098 L 48.746094,94 l 0.21289,0.884766 -1.05664,-0.726563 z m -13.822266,0.121094 2.517579,0.5 0.0059,0.0293 -0.03516,0.160156 0.06055,-0.06055 0.365234,1.546876 -0.05273,-0.03125 0.07812,0.140624 0.0078,0.03711 -0.175781,0.0098 0.140625,0.08398 -0.591797,0.707031 -0.689453,0.304688 -0.02148,-0.04102 -0.03125,0.06445 -0.02148,0.0098 h -0.902344 l 0.01758,-0.09961 -0.125,0.09961 -2.410156,0.08398 0.128906,-2.703125 v -0.02734 -0.02734 l -0.05664,-0.642578 1.605468,-0.128907 -0.002,0.0039 0.01758,-0.0059 z m 33.199219,0.002 0.04687,0.01367 0.06055,0.06836 0.0059,-0.04883 0.744141,0.222657 0.0293,0.236328 0.08789,-0.201172 0.662109,0.203125 0.650391,1.195312 -0.396485,1.625 -0.0293,-0.02539 0.01367,0.08984 -0.0098,0.04102 -1.509765,0.511719 -2.285156,-0.148438 0.05859,-2.24414 0.01758,0.01563 -0.01562,-0.09961 0.0039,-0.123047 0.03906,-0.01563 -0.03906,-0.03906 v -0.02148 l -0.002,-0.02344 0.09766,-0.154297 -0.113281,0.04102 -0.01563,-0.134766 0.002,-0.08203 -0.0098,0.01563 -0.08008,-0.646484 z m -16.714844,0.04687 0.138672,0.402344 0.253906,0.742188 -0.654296,0.283203 0.248046,-1.359375 z m 13.673828,0.03125 0.658204,0.169922 -0.0332,0.04297 0.09961,-0.01367 0.01563,0.109375 -0.0059,0.04492 0.01172,-0.01172 0.06445,0.417969 z m 4.933594,0.01172 0.0918,0.330078 0.01758,0.08008 -0.09766,-0.175781 z m -17.617187,0.0039 0.111328,0.916016 0.128906,1.050781 -0.488281,-0.818359 0.169922,-0.806641 z m -1.308594,0.01172 -0.298828,1.476563 -0.884766,0.185547 -0.105469,0.02148 z m 30.277344,0.01367 1.085937,1.888672 -0.0059,0.002 0.01172,0.0098 0.0098,0.01563 -0.666015,1.267578 -0.507813,0.972656 0.03516,-2.037109 z m -1.457031,0.01953 0.05078,0.355469 0.201172,1.421875 -1.404297,-1.726563 z m -47.228516,0.0332 -0.445313,0.759766 -0.08203,-0.662109 0.04102,0.01953 -0.04297,-0.07813 z m 32.076172,0.05273 1.05664,0.990234 L 65.453125,94.5 64.75,94.740234 64.724609,94.539062 Z m -0.527344,0.01172 -0.40625,1.607421 -0.398438,-0.46289 -0.21289,-0.244141 v -0.002 z m -8.816406,0.002 -0.03711,0.658203 -0.04492,0.8125 -0.43164,-0.609375 z m 44.326172,0.002 1.054684,0.123047 -0.13672,0.505859 z m -21.365235,0.0039 1.296875,1.580078 -2.107422,-1.328125 0.103516,-0.03125 z M 83.625,93.5 l -0.02734,1.392578 -0.01367,0.84961 -0.496093,-0.728516 z m -11.019531,0.0039 0.0293,0.740235 v 0.632812 l -0.449219,-0.294922 -0.205078,-0.130859 z m 31.867191,0.15625 0.76367,0.34961 v 0.126953 z m -11.115238,0.0039 0.339844,2.261719 -2.617188,-1.996093 z m -20.439453,0.01367 0.623047,1.154297 -0.376954,0.09375 -0.203124,0.05078 -0.01563,-0.423828 z m -19.269531,0.03516 0.675781,0.677734 -0.449219,1.367187 -0.02734,0.08008 -0.121094,-1.316407 z m -20.996094,0.0098 0.02148,0.248047 -0.267578,0.177735 z M 31.435547,93.75 30.808594,95.519531 30.640625,95.292969 30.197266,94.675781 Z m 62.412109,0.0098 0.970703,0.287109 -0.416015,0.625 z m -21.804687,0.0059 -0.378907,0.560547 -0.06445,-0.04102 0.01172,0.07813 -0.501953,0.138672 z m -7.765625,0.05469 0.140625,0.847657 0.03125,0.199219 -0.341797,0.179687 -0.152344,0.06836 0.158203,-0.617187 z m 36.800776,0.01758 2.37696,1.666015 -1.70313,0.767578 z M 62.265625,93.84375 62.621094,94.375 62.5,94.779297 Z m -0.320313,0.002 0.378907,1.498047 -0.667969,0.560547 z m -30.251953,0.148438 0.07813,0.609375 -0.162109,0.18164 -0.322266,0.361328 0.183594,-0.523437 z m 55.753907,0.04883 -1.339844,1.910156 0.01172,-0.462891 z m 13.367184,0.01563 0.26367,0.945312 -0.33398,-0.666015 z m -61.218747,0.01367 0.216797,0.349609 0.228516,0.40625 -0.619141,0.390625 0.0918,-0.619141 z m 41.230469,0.0293 -0.02734,1.650391 -0.01367,1.328125 -0.371094,-1.289062 0.121094,-0.01172 -0.140625,-0.08789 z m -43.150391,0.02734 1.177735,1.28711 -0.878907,0.0625 z m 15.701172,0.06641 0.130859,1.345704 0.06836,0.785156 -0.685547,-0.388672 0.470703,-1.683594 v -0.002 z m 37.298828,0 0.238281,0.488282 0.330079,0.660156 -1.183594,0.25 z m -43.126953,0.01172 c 0.0012,0.0076 1.97e-4,0.01513 0.002,0.02148 l -0.002,0.002 c -0.0027,-0.0093 -0.002,-0.0013 -0.002,-0.01172 z m 30.056641,0.03906 2.138672,1.347656 -1.076172,0.111328 z m 16.175781,0.01758 0.423828,0.71289 -0.228516,0.636719 -0.171874,-1.1875 z m -61.113281,0.09961 -0.08789,1.738281 -0.002,-0.0059 -0.443359,-1.371094 z m 58.458984,0.0098 1.886719,1.443359 -1.357422,-0.466797 0.01953,-0.0332 -0.07227,0.01563 -0.0039,-0.002 z m -35.634765,0.06445 0.0625,0.458984 -0.0957,0.101563 0.0059,-0.117188 z M 74,94.501953 l 0.05664,0.726563 -0.09375,-0.302735 z m -26.107422,0.03906 0.703125,0.486328 0.347656,0.248047 -0.833984,0.851562 -0.119141,-0.796875 z m -19.0625,0.138672 0.753906,0.08594 -0.355468,0.300781 -0.601563,0.511719 z m 34.044922,0.01172 0.105469,0.13086 0.376953,0.4375 h -0.642578 l 0.132812,-0.464844 0.002,-0.002 z m -8.308594,0.002 0.496094,0.697266 -0.263672,0.214844 -0.71289,0.560547 0.333984,-1.003907 z m -12.904297,0.01953 -0.164062,1.160156 -0.08203,-0.724609 z m 43.869141,0.02344 -0.322266,0.88086 -0.210937,0.539062 -0.873047,-0.06055 z m 19.62695,0.04297 -0.26367,1.412109 -0.83789,-0.65625 0.34766,-0.236328 z m -33.853512,0.01172 -1.070313,1.324218 0.271484,-1.111328 z m -19.773438,0.0039 -0.447266,1.419922 -0.1875,-1.167969 z m 13.988281,0.01563 -0.634765,1.025391 -0.06836,-0.574219 -0.0293,-0.1875 z m 6.427735,0.01953 0.410156,0.267578 0.210937,0.134766 -0.388671,0.679687 -0.05859,0.09375 -0.08008,-0.542968 z m -20.119141,0.05078 0.71875,1.201172 0.722656,2.679688 -1.615234,0.267578 -1.447266,-0.257813 0.890625,-1.664062 0.04102,0.02344 -0.0098,-0.08008 0.0078,-0.0059 0.04492,-0.04687 0.01563,-0.05469 0.03516,-0.02148 -0.02344,-0.01367 0.06445,-0.214844 0.0293,-0.05273 -0.01563,0.0098 0.53125,-1.740235 v -0.002 z m 33.964844,0.07617 0.01563,0.384766 -0.273438,0.291015 z m -55.800781,0.0078 0.298828,0.394531 0.341796,0.466797 -1.501953,0.861328 z m 1.865234,0.0098 0.523437,1.589844 -1.279297,-0.732422 z m 15.779297,0.03125 0.160156,1.173829 0.02148,0.142578 h -0.53125 z m 23.86914,0.0332 -0.179687,1.716797 -0.08789,0.847657 -1.001953,-0.775391 -0.08594,-0.07422 z m -5.771484,0.03906 -0.04492,1.744141 -0.695312,-0.53711 0.52539,-0.867187 z m -25.320313,0.002 0.386719,0.08008 0.210938,0.05078 -0.277344,0.501953 -0.351563,0.652343 0.01367,-0.855468 z m -0.314453,0.09766 -0.01367,0.414063 -0.03125,0.958984 -0.621094,-0.939453 0.58789,-0.378906 z m 10.300782,0.002 -0.457032,0.824218 -0.455078,-0.632812 0.498047,-0.09766 h 0.002 z m 23.171875,0.0059 -0.746094,2.673828 0.11914,-2.279297 0.01563,-0.259766 0.21875,-0.04687 z m -9.087891,0.02344 0.07617,0.707032 L 64,95.445312 Z m 18.345703,0.01563 0.195313,0.289063 -0.02734,-0.02148 -0.269531,-0.212891 z m -27.154297,0.01172 0.22461,0.498047 -0.394532,-0.328125 z m -26.210937,0.05664 -0.691406,1.382812 -0.208985,-0.607422 z m 21.171875,0.142578 0.117187,0.720703 0.05859,0.478516 -0.630859,-0.367188 0.345703,-0.630859 z m 23.160156,0.07422 0.359375,1.083984 -1.128906,1.755859 z m -11.173828,0.06055 h 0.765625 l -1.150391,1.625 z m 20.025391,0.04492 0.853515,0.66211 -0.691406,0.955078 -0.01563,0.02148 z m -33.574219,0.01367 0.05273,1.011719 0.04883,0.912109 -0.953125,-1.070312 z m -7.927735,0.0039 0.142578,1.351563 -0.83789,-0.07813 0.447266,-0.839844 z m 64.169926,0.02148 0.12109,1.488281 -0.2207,-0.55664 h 0.10547 l -0.15235,-0.119141 0.0977,-0.07813 h -0.0859 z m -14.162113,0.04102 -1.28125,2.238282 0.06836,-1.982422 0.304688,-0.06836 z m -19.386719,0.002 0.117188,0.736328 -0.25586,0.539062 z m 32.001952,0.0078 0.78711,0.617188 h -2.14648 z m -64.634764,0.02734 0.537109,0.80664 -1.291016,-0.767578 0.695313,-0.03516 -0.002,0.01172 0.02148,-0.01367 z m 52.671875,0.002 1.882812,0.658203 -0.820312,1.578125 z m -42.41211,0.05664 0.392578,0.546875 -0.318359,0.83789 z m 14.511719,0 0.677734,0.597656 -0.382812,1.826172 z m -8.388672,0.02734 0.382813,0.330079 h 0.002 l 0.259765,0.222656 -0.287109,1.80664 z m 26.816406,0.0098 0.136719,1.382813 0.02344,0.248046 -0.01953,-0.01172 0.02539,0.06055 0.0039,0.04688 -0.93164,0.285156 -0.320313,0.08203 z M 72.605469,95.84375 72.490234,97.984375 72.207031,96.5 Z M 62.226562,95.865234 61.875,97.347656 61.605469,96.386719 Z m 17.78125,0.01758 -0.539062,1.960938 -0.660156,-1.839844 z m 5.669922,0.0625 -0.06641,0.273438 -0.236328,0.960938 -0.105469,-0.814454 0.0625,-0.06445 0.121094,-0.06836 -0.05273,-0.002 z m -30.910156,0.08008 -1.037109,2.009765 0.169922,-1.308594 z m -23.851562,0.06445 1.273437,0.736328 -1.910156,0.269531 z m 7.375,0.0059 1.732422,1.03125 -0.34961,1.470703 z m 25.34375,0.08008 0.27539,2.271485 -0.640625,-1.107422 z m -7.398438,0.09766 -0.0039,0.03125 c -6.89e-4,0.0018 -0.0013,0.0021 -0.002,0.0039 -3.75e-4,-0.0031 -0.002,-0.01173 -0.002,-0.01172 -9e-6,4.8e-5 0.0037,-0.01184 0.0078,-0.02344 z m -18.429687,0.0078 0.296875,1.351562 0.308593,1.511719 -1.179687,-0.955078 0.335937,-1.111328 z m 25.466797,0.0293 -0.300782,0.953125 -0.580078,0.294922 z m -32.88086,0.002 -0.197266,0.320312 -0.292968,0.486329 -0.685547,-0.123047 z m 7.078125,0.01367 -0.08789,0.291016 -0.107421,0.339843 0.02539,-0.429687 z m 17.505859,0 -0.292968,2.066406 -0.06836,-0.03906 0.04102,0.117187 -0.882812,0.1875 z m 36.462891,0.03906 0.376953,2.417969 -0.833984,-0.292969 z m -7.603515,0.04492 0.703124,0.03711 -1.300781,0.736328 0.525391,-0.705078 0.06836,0.09961 z m 7.246093,0.05859 -0.425781,1.964844 -0.05859,-0.01953 0.01172,0.02344 -0.640625,-0.0293 z m -35.802734,0.0098 0.08203,0.451172 -0.002,-0.0039 0.298828,1.960938 -0.65625,-0.38086 0.191406,-1.447265 z m -2.082031,0.01758 0.3125,0.177734 -0.06445,0.08203 -0.04492,0.05664 z m 38.615234,0.0059 0.851562,1.748047 -0.03516,0.0098 0.02734,0.02344 -0.513672,0.425781 -0.257812,-1.732422 z m -41.759766,0.05469 0.666016,0.376953 -1.044922,0.667968 z m 34.923828,0.01953 0.06836,0.570312 0.08984,0.730469 -1.951172,-0.28125 z m -37.658203,0.05469 h 0.498047 l -0.01953,0.117188 -0.15625,0.867187 -0.107422,-0.322265 z m -9.091797,0.02148 1.291016,2.320312 -0.71875,0.375 z m 64.339848,0.002 h 1.95117 l -0.59766,0.484375 z m -65.626957,0.07813 -0.01367,0.326172 -0.02344,0.578125 -0.363282,-0.714844 z m 27.888672,0.03711 0.355469,0.667969 -0.708985,1.007812 z m 37.203125,0.02539 1.58398,0.554687 -0.87109,0.609375 -0.67187,-1.101562 z m -21.945312,0.01367 0.06836,1.867187 -0.472656,-0.375 z m -23.673829,0.0625 1.033203,2.296875 -1.373046,-0.123047 z m 48.318361,0.0332 -0.0742,0.328125 -0.0606,-0.0078 -0.23242,-0.02734 z m -39.443361,0.03516 0.25586,0.203125 -0.109375,0.07031 z m -12.183593,0.01172 0.111328,0.173828 0.01172,0.292969 z m 18.863281,0.03516 0.330078,1.779297 -0.751953,-0.886719 0.302734,-0.646484 z M 80.416016,97 l 0.324218,1.123047 -0.277343,0.392578 -0.0098,-0.328125 z m -33.478516,0.002 v 1.876953 l -0.556641,-0.408203 -0.283203,-0.216797 z m -11.527344,0.01367 h 0.667969 l -1.042969,2.132813 0.234375,-1.294922 z m 69.636724,0.0078 0.24804,0.625 -0.32226,-0.292969 z m -35.398442,0.0059 -0.207032,0.521484 -0.666015,-0.234375 z m -35.683594,0.01758 -0.28711,0.08008 -0.171875,-0.06641 z m 14.378906,0.04297 0.814453,0.892578 0.01758,0.02539 -0.367187,0.871094 -0.07617,-0.269531 z m 53.49609,0.0332 0.36914,0.597656 0.17774,0.273438 -0.29492,-0.04492 -0.18946,-0.0293 z m -68.978512,0.03906 0.267578,0.09375 0.304688,0.121094 -0.462891,0.792969 -0.06641,0.111328 -0.02539,-0.613281 z m 37.289063,0 0.140625,0.117188 0.873046,0.685547 -0.46289,1.21875 -0.177734,0.447265 -0.13086,-0.871093 z m 23.490234,0 -0.08789,0.771485 -0.363281,0.109375 z m -61.525391,0.0059 -1.605468,1.234375 -0.320313,-0.980469 z m 4.222657,0.0332 0.509765,1.001953 -1.365234,1.152344 -0.335938,0.279297 z m 11.689453,0.01172 0.201172,0.742187 0.216796,0.853516 -0.580078,-0.59375 z m -13.009766,0.01172 -0.279297,1.644532 -0.189453,1.099609 -1.378906,-1.019531 -0.146484,-0.123047 z m -0.490234,0.002 -1.175782,0.927735 0.429688,-0.708985 0.378906,-0.11914 z m 5.816406,0 0.792969,0.06055 -1.103516,1.208985 z m -11.091797,0.0957 0.488281,0.07422 0.03125,0.0078 -0.02148,0.0332 0.0918,-0.01367 0.220703,0.685547 z m 37.089844,0.01563 1.765625,0.11914 -0.121094,1.183594 z m 3.519531,0.04102 0.207031,1.390625 -0.365234,-1.003906 0.002,-0.0039 0.05664,-0.04687 -0.0332,-0.01172 z m -19.259766,0.01758 -0.630859,1.191407 -0.369141,-0.558594 z m -3.355468,0.0098 0.03711,0.105469 0.25,0.75 -0.287109,0.423828 z m 18.449218,0.0293 0.0078,0.111328 0.03125,0.544922 -0.171875,-0.566406 z m -33.449218,0.01563 -0.951172,2.107422 -0.644531,-0.867188 z m 71.904296,0.04102 0.41016,0.0625 -0.27344,0.804687 z m -38.142578,0.01953 1.705079,1.363281 -1.576172,0.412109 -0.07813,-0.966797 z m -36.990234,0.02539 1.175781,1.136719 -0.458984,0.535156 -0.296875,0.3125 -0.400391,-1.90039 z m 39.414063,0 0.794921,0.273438 -0.917968,0.75 z m 35.421879,0.05078 0.0762,0.445312 -0.002,-0.0039 0.0996,0.712891 -1.02343,-0.560547 0.43164,-0.28711 z m -71.285161,0.02539 0.04297,1.101563 -0.855469,0.636718 z m 30.398438,0.01563 0.05078,0.554688 0.146484,1.300781 -1.035156,-1.445313 z m 41.896483,0.07422 0.53906,0.492187 -0.0293,0.01563 -0.84961,0.466796 z m -39.546874,0.128906 0.212891,0.69336 0.214844,0.769531 -0.654297,-0.103516 -0.652344,-0.121094 0.265625,-0.373046 z m 18.242188,0.136719 0.943359,0.128906 0.484375,0.07422 -0.376953,0.375 z m -54.775391,0.04102 0.220703,1.044922 0.16211,0.751953 -0.675782,0.492189 z M 83,98.033203 l 1.476562,0.802735 -0.05273,2.683592 z m -0.658203,0.0059 L 81.5,100.16992 80.570312,99.042969 Z m -18.988281,0.07813 0.626953,1.054687 -0.458985,0.529297 -0.126953,-1.230469 z m -17.5,0.01953 h 0.0039 l -0.002,0.002 z m 35.517578,0.08203 -0.464844,0.259766 0.125,-0.169922 z m -9.960938,0.0039 0.894532,1.06836 -1.560547,0.666015 z m 30.425784,0.002 0.50195,0.07813 -0.875,0.771485 z m -32.615237,0.02734 -0.28125,0.847656 -0.302734,0.941411 -0.123047,-0.378911 h -0.002 l -0.21875,-0.636718 z m 0.326172,0.002 0.02539,0.07227 0.646484,1.796878 -0.794922,0.15234 -0.552734,0.0801 z m 24.068359,0.0059 0.667969,1.064453 0.04102,0.06641 -1.142578,-0.996094 0.03125,-0.0078 z m -11.003906,0.03906 0.390625,2.539062 -1.242187,-0.44336 0.376953,-0.933592 z m -33.21875,0.01367 0.02539,0.04102 0.236328,0.375 -0.05664,-0.0098 0.105469,0.08594 0.01172,0.01953 -0.660156,0.242187 z m 53.367192,0.105469 0.62695,0.341797 0.51758,0.27539 -2.11328,1.285154 z m -40.740239,0.04297 1.123047,1.564452 -1.228516,0.45508 z m -24.99414,0.0039 0.09961,0.193359 0.0059,-0.126953 1.150391,0.933594 -3.048828,0.523437 z m 68.404299,0.08203 -0.40039,1.474605 -0.0664,-0.113277 -0.49414,-0.8125 0.49023,-0.291015 z m -12.597659,0.002 0.4375,0.664063 0.648438,0.999999 -1.632813,-1.193359 z m -46.74414,0.09375 0.830078,0.617188 -0.521485,1.839844 -0.03125,-0.23633 z m 1.53125,0.04883 0.251953,1.064453 -0.583985,-0.585937 z m 42.423828,0.04492 0.632812,0.01563 0.902344,1.935547 z m -35.335938,0.03711 0.253907,0.660156 0.378906,1.107426 -0.636719,-0.636723 -0.916016,-0.916016 0.603516,-0.148437 z m -6.74414,0.0039 0.583984,0.582031 -0.333984,0.494141 z m 43.140625,0.0957 0.773437,0.273437 0.01563,0.253907 0.148438,1.496089 -0.595704,-1.292964 z m 11.062504,0.0078 -0.25782,0.515625 h 0.002 l -0.47461,0.929686 -0.16407,-0.441404 -0.0605,-0.16211 z m -47.064458,0.05273 0.611329,0.347656 -0.09766,1.09766 z m -24.61914,0.06445 0.396484,0.558594 0.214844,0.28125 -1.248047,0.964839 z m 52.560547,0.02539 1.09375,2.683592 -0.002,-0.002 -0.777344,-0.68946 z m -37.222657,0.08008 0.263672,2.187504 -0.630859,-0.90821 z m 4.052735,0.0078 0.392578,1.269532 -1.175781,-0.972657 z m -17.259766,0.01953 v 0.71875 l -0.849609,-0.101562 z m 0.310547,0.0059 1.177734,0.894531 -1.177734,-0.150391 z m 17.625,0.01953 0.904297,0.158203 -0.09375,0.505859 z m 2.712891,0.03125 -0.101563,1.30859 -1.291015,-0.44336 z m -0.601563,0.002 -0.970703,0.59375 0.04687,-0.320312 0.002,-0.0078 v -0.002 l 0.02344,-0.107422 z m 15.341797,0.02344 0.400391,1.183589 -1.947266,-0.12304 z m 25.658203,0.01367 1.126953,0.976558 -0.234375,0.36719 z m -40.070312,0.02734 1.660156,1.662114 -1.732422,-0.3379 0.03125,-0.0449 -0.07813,0.0234 0.0293,-0.27344 z m 36.490234,0.04297 1.847656,2.337895 -0.148437,-0.0273 -1.095703,-0.21094 z m -22.832031,0.04492 -1.099609,0.763673 v -0.478517 z m -16.966797,0.0098 0.957031,0.759768 -0.578125,0.47265 z m 30.123047,0 0.716797,0.865238 0.0098,0.0137 -0.695312,-0.13672 -0.220703,-0.041 z m -24.386719,0.02148 1.306641,0.101562 -1.408203,1.306641 0.06836,-1.066406 z m 8.203125,0 0.958985,0.154297 -1.339844,0.318359 0.271484,-0.330078 z M 30,99.380859 l -0.400391,1.136721 -0.07813,-0.589846 z m 74.19336,0.09961 0.34375,1.416011 -1.49805,0.70508 z m -0.37109,0.0039 -1.18946,2.203125 -0.95312,-0.89844 z m -55.025395,0.105469 1.136719,0.955076 -1.525391,-0.38086 0.171875,-0.273435 0.171875,-0.251953 0.0098,0.03516 z m 43.451172,0.0039 1.003906,1.32031 0.703125,0.91797 -1.49414,-0.10547 z m -44.966797,0.03516 0.675781,0.675784 -0.476562,1.43164 z M 57.5,99.757812 57.400391,101.01758 H 56.125 Z m 8.056641,0.0059 -0.726563,0.896488 -0.246094,0.27929 -0.841796,-0.75586 z m 27.263671,0.04492 1.560547,1.124996 -0.04687,0.18555 -0.117187,0.51563 -1.160156,-1.51368 z m -54.615234,0.0078 -0.80664,0.806644 -1.814454,-0.34766 z m 62.740232,0.119141 0.1211,0.332033 0.10351,0.32031 h -1.12695 z m -35.128904,0.0098 v 0.382808 l -0.564453,0.31836 z m -27.292968,0.01758 0.04297,0.691409 -0.720703,-0.0156 z m 66.123042,0.05273 0.25,0.41016 -0.10546,0.16797 z m -65.792964,0.006 0.93164,1.04102 -0.865234,-0.34961 0.0039,-0.008 h -0.02539 l -0.01758,-0.008 z m -7.386719,0.0332 0.982422,0.11523 -0.212891,0.26563 -0.882812,1.05468 z m 15.535156,0.0586 0.138672,1.58984 0.04687,0.53711 -0.664062,-0.38671 z m -15.859375,0.10352 -0.109375,1.21484 -0.02734,0.31055 -1.164062,-0.53125 z m 26.63086,0.0547 0.171874,0.625 -0.230468,0.0566 z m -6.216797,0.0254 1.214843,0.41406 -1.708984,0.49414 z m -22.578125,0.0508 -0.285157,0.70898 -0.02148,0.0605 -0.185547,-0.41797 z m 51.373046,0.0684 1.052735,0.21289 0.394531,2.05664 z m -16.84375,0.004 0.0332,0.0469 -0.0059,-0.043 0.78125,0.67969 -1.107422,0.41796 z m 31.525391,0.006 1.474609,1.31055 -1.720703,-0.92774 z M 29.25,100.54492 l 0.06445,0.50196 -0.03906,-0.0176 0.04883,0.0859 0.002,0.0156 -0.08008,0.0312 -0.283203,0.10156 0.08984,-0.22265 z m 6.144531,0.0195 1.933594,0.35938 0.05078,0.27344 0.146485,0.77734 z m 22.814453,0.0156 0.05469,0.0996 -0.02148,0.0234 z m 4.527344,0.0547 -1.103516,1.28515 0.04102,-0.73242 z m -14.291016,0.0527 1.701172,1.26562 -1.267578,0.11719 z m -16.03125,0.004 -0.36914,1.53515 -0.646484,-0.29101 0.185546,-0.22852 z m 30.652344,0.0625 -0.251953,0.90625 -0.503906,0.20117 L 62,101.98242 l 0.548828,-0.63281 z m 18.765625,0.0195 1.197266,0.44336 -0.01758,0.33203 -0.08594,1.71875 z m -33.689453,0.0137 0.408203,1.32812 -0.517578,0.125 -0.402344,0.0859 z m 2.789063,0.002 -0.146485,0.25 -0.02344,-0.10937 z m -1.220703,0.0234 0.726562,0.17578 0.04687,0.19336 z m 15.789062,0.0566 -1.082031,1.66016 0.333984,-1.2461 z m 14.775391,0.008 0.792968,1.24805 0.820313,1.27734 -1.273438,0.23438 z m 19.390625,0.0215 h 1.263674 l -1.603518,1.19922 z m -54.22461,0.0449 0.625,0.90039 -0.43164,0.12695 -0.19336,0.0488 z m -7.792968,0.004 0.794921,0.0156 -0.599609,0.92969 -0.136719,-0.63281 z m 7.458984,0.002 v 1.1543 l -0.84961,0.18359 z m 8.642578,0.0195 1.595703,0.29883 -0.806641,0.58398 z m 4.673828,0.01 0.115234,0.1875 -0.152343,-0.15235 z m -5.109375,0.002 0.726563,0.81445 -1.089844,-0.27539 0.166016,-0.25 z m -17.826172,0.0156 2.107422,1.39453 -0.09766,1.00586 z m 17.427735,0.002 -0.314454,0.46484 -0.99414,-0.0742 z m -3.396485,0.0762 0.427735,0.19531 0.603515,0.29102 -0.01563,0.0605 -0.0078,0.0156 0.0039,-0.002 -0.04102,0.16992 z m -10.552734,0.002 1.203125,0.48828 -0.416016,1.33008 -0.177734,0.58399 z m 57.308594,0.0176 0.404297,0.22461 v -0.0176 l 0.21875,0.3457 z m -30.5625,0.0156 -0.234375,1.67187 -0.0957,0.76367 -0.582031,-0.10937 -0.53125,-0.11524 z m 28.949218,0.0117 2.039063,1.0918 -2.214844,-0.33789 0.08398,-0.40234 z m 6.953121,0.0469 0.84375,0.82617 -0.56836,1.4043 -0.18359,-1.42969 z m -62.960933,0.0391 0.617187,2.35742 -1.298828,-1.2832 z M 58,101.22852 v 0.5625 l -0.224609,-0.50586 z m 41.238281,0.0215 -0.02539,0.0879 -0.289063,0.99023 -0.882812,0.0156 z m 1.730469,0.0156 -1.023438,2.09961 -0.664062,-0.83593 z m -2.277344,0.043 -0.599609,0.56641 0.154297,-0.35547 z m -42.578125,0.0195 h 0.75586 l -0.396485,0.19922 0.0059,-0.041 -0.07422,0.0742 -0.03125,0.0156 z m 45.210939,0.0664 0.30859,2.50977 -1.38672,0.17773 0.6836,-1.73047 z m -71.863282,0.0391 0.833984,1.48829 -1.328125,-1.31446 0.410156,-0.15234 -0.01367,0.0547 z m 67.677734,0.0137 0.74414,0.0859 -0.279296,0.64453 -0.455078,-0.71484 z m -41.351563,0.004 0.330079,0.33008 -0.746094,0.73242 z m 1.53711,0.002 -0.195313,1.11329 -0.55664,-0.73633 z m 6.935547,0.0156 -1.03125,1.86719 -0.09766,-1.44141 z m 19.236328,0.0957 0.902344,0.8086 -0.300782,1.50586 z m -53.601563,0.0215 0.3125,0.13672 0.769531,0.36328 -0.0332,0.24609 -0.09375,0.95899 -0.472656,-0.85157 z m 28.628907,0.0293 0.617187,0.61719 -0.314453,0.30078 -0.117188,-0.36328 z m -7.652344,0.0156 0.759765,0.0586 -0.324218,0.0762 -0.515625,0.11329 0.05664,-0.23438 0.03125,0.0156 z m 4.49414,0.0117 -0.382812,1.01953 -0.02148,0.0566 -0.207032,-0.46875 0.0625,0.0156 -0.111328,-0.125 z m -22.845703,0.008 -0.04883,0.88867 -0.136719,-0.13476 -0.0059,-0.008 z m 71.613279,0.0391 -1.91211,1.75586 0.5586,-1.35156 z m -46.50781,0.0352 0.314453,0.74023 -0.472656,0.23438 0.07422,-0.4668 z m -4.839844,0.0762 0.71875,0.17969 -0.839844,0.0606 z m -12.357422,0.0215 0.878907,1.17578 -1.478516,0.75781 z m 11.976563,0.0352 -0.107422,0.21485 -0.646484,-0.0547 z m -23.644531,0.008 1.832031,1.8125 -2.242188,0.13086 z m 53.222656,0.043 0.25,0.56055 0.490234,1.15625 -0.433594,-0.2168 z m -23.671875,0.0703 0.179687,0.5332 -0.179687,-0.0898 z m 33.912109,0.0625 0.5625,1.12695 -1.011718,-1.05078 z m 0.482422,0.0117 1.46875,0.10352 0.361328,1.74219 z m -30.021484,0.004 -0.5625,1.66992 -0.07031,0.21875 -0.414062,-1.45312 0.974609,-0.40625 z m -16.566406,0.0937 -0.273438,1.81836 -0.08984,-0.38867 -0.289062,-1.23242 z m 37.183593,0.002 0.121094,0.45508 0.4375,1.63477 -0.648437,-0.36719 z m -26.896484,0.0117 0.402344,0.50977 0.167968,0.23828 -0.75,0.26953 0.0957,-0.54102 z m 9.503906,0.002 0.06055,1.29687 -0.238281,0.0605 0.01172,-0.0254 -0.01758,0.0117 z m -34.628906,0.0625 0.617187,0.28125 -0.154296,0.17968 -0.566407,0.64258 z m 63.558594,0.0234 2.472656,0.38867 -0.9375,0.99219 -0.06055,-0.0527 z m -38.75586,0.008 -0.134765,0.80664 -0.03711,0.17578 -0.179687,-0.0527 0.002,0.002 -0.445313,-0.13868 0.478516,-0.47656 z m -9.457031,0.0293 0.599609,0.33399 -0.01563,0.1875 v 0.002 l -0.06836,1.02148 z m 17.492188,0.13477 -0.244141,0.89453 -0.367188,0.19336 z m -15.720704,0.0508 -0.949218,1.5293 0.107422,-1.34571 z m -3.544922,0.01 -1.183593,1.56835 0.371093,-1.39062 z m -8.511718,0.01 1.041015,1.24414 -0.148437,0.0957 z m 22.943359,0.0391 0.365235,1.36914 -0.691407,-1.04296 z m 3.560547,0.0586 0.09961,1.21484 -0.623047,0.33984 z m -16.447266,0.0508 0.388672,1.16797 0.242188,0.70507 -0.951172,0.11719 0.289062,-1.79101 z m 48.201172,0.01 1.550782,2.04493 -1.208985,-0.41993 z m -56.714844,0.004 1.208985,1.19336 -0.205078,-0.0312 h -0.002 l -1.076172,-0.18164 z m 60.462891,0.0137 -1.212891,0.60156 0.513672,-0.53125 0.05664,-0.0586 z m 0.666016,0.0254 0.654297,0.82031 -2.494141,0.13282 1.685547,-0.87305 v 0.002 l 0.0098,-0.008 z m -6.091797,0.0156 1.36914,1.38281 -0.773437,-0.18945 z m -60.802734,0.0371 0.0332,0.0781 h -0.002 l 0.685546,1.67188 -1.589843,-0.75196 0.449218,-0.52148 z m 26.152343,0.0176 0.265625,0.13282 -0.474609,0.81054 0.04297,-0.20507 z m -0.345703,0.0508 -0.242187,1.17187 -0.09961,-0.34375 -0.152343,-0.57422 z m -12.662109,0.01 0.412109,1.76563 -0.447266,-0.0937 h -0.0039 L 44.734375,104.375 Z m -0.458985,0.27149 -0.07227,0.22461 -0.337891,1.03711 -0.685547,0.17773 0.375,-0.48438 z m 50.642578,0.13476 0.794922,0.69727 0.09766,0.47265 z m -38.478515,0.0176 -0.244141,0.58008 h 0.002 L 56.5,104.34961 l -0.279297,-0.81836 0.714844,-0.26953 z m -15.482422,0.0234 0.02344,0.0508 -0.304687,0.0937 z m 17.1875,0.0215 0.142578,0.83594 0.119141,0.61719 -0.978516,-0.21094 z m 25.857422,0.0312 0.150391,1.30078 -0.388672,-0.15039 0.08789,-0.41015 z m -29.363281,0.043 0.425781,0.12109 0.197265,0.0488 -0.324218,0.59375 -0.115235,0.20313 z m 2.039062,0.11524 0.285156,1.02929 -0.757812,0.0918 0.0332,-0.0879 z m 1.853516,0.0937 0.726562,1.10938 -0.507812,0.082 z m 5.08789,0.0547 0.94336,0.1836 -0.908203,0.61132 -0.126953,0.0781 0.0625,-0.58789 z m 17.863282,0.0645 0.03125,0.28906 0.04687,0.60156 -1.171875,-0.6875 0.828125,-0.16016 z m -18.207032,0.0117 -0.07422,0.68555 -0.375,-0.44922 z m -22.476562,0.0234 -0.703125,0.9961 -0.710938,-0.58594 z m 41.005859,0.0605 0.44336,0.22265 -0.369141,0.44727 z m -16.398437,0.0195 -0.07031,0.31641 -0.115234,-0.26953 z m -9.935547,0.0156 0.04492,0.13868 0.214843,0.68554 h -0.720703 z m 43.820312,0.0137 v 0.25195 l -1.474609,-0.17969 z m -58.208984,0.0566 0.128906,0.83008 -0.753906,0.0449 z m 20.091797,0.0371 0.132812,0.46679 -0.09961,0.0293 z m -23.945313,0.0293 1.175782,0.17578 -1.279297,0.48633 z m -7.347656,0.0312 -0.833984,0.60938 -0.914063,-0.50391 z m 0.519531,0.0508 0.476563,0.7246 -1.371094,-0.0937 0.804688,-0.57031 v 0.01 l 0.01953,-0.0215 z m 66.132813,0.0527 2.349609,0.26953 -1.078125,0.55664 z m -59.648438,0.002 -0.0098,0.0508 -0.0059,0.0371 -0.02148,-0.0664 z m 28.113282,0.0352 0.160156,0.41211 -0.398438,0.14453 z m 14.917968,0.0117 0.140625,0.34961 0.136719,0.29687 -0.646484,-0.1582 z m -17.460937,0.006 0.07031,0.43359 -0.568359,-0.13477 h -0.0039 l -0.0332,-0.01 0.06836,-0.041 z m 2.177734,0.0215 -0.123047,0.28516 -0.140625,0.3164 -0.576172,-0.0762 z m 31.458985,0.0117 1.146484,0.74414 -1.001953,-0.0273 z m -65.207032,0.004 1.126953,0.51171 -0.742187,0.0781 z m 49.396485,0.01 0.986328,0.57031 -0.69336,0.0937 z m 2.24414,0.0215 0.50586,0.60351 -0.941406,-0.082 0.310546,-0.37109 z m -43.548828,0.0488 0.04883,0.19336 0.04883,-0.1582 0.591797,0.47266 -1.914062,-0.043 z m -11.070312,0.0645 0.546875,0.3164 h -0.431641 z m 71.886716,0.0625 -0.15625,0.0547 -0.006,-0.0312 z m -36.957029,0.0605 0.160157,0.19336 h -0.126954 z m 36.492188,0.0527 0.0078,0.0391 -0.154297,0.0391 z m -16.085938,0.0527 0.144531,0.082 -0.01953,0.0664 z m -41.699219,0.13672 0.0078,0.0195 h -0.0059 z m 42.144532,0.084 0.06445,0.0293 -0.08008,0.0117 z"
       id="text817"
       inkscape:connector-curvature="0" />
  </g>
</svg>
