<svg xmlns="http://www.w3.org/2000/svg" width="85" height="85"><ellipse cx="45.38" cy="42.86" fill="#fff" paint-order="markers stroke fill" rx="30.97" ry="29.89"/><path d="M42.5 0a42.5 42.5 0 1 0 0 85 42.5 42.5 0 0 0 0-85zm-.21 66.27s-1.97 1.31-3.32 1.3l-.2.1.01-.1a4.32 4.32 0 0 1-.86-.12l-.42-.1c-2.36-.59-3.6-2.92-3.02-5.28l3.28-13.2 1.48-5.97c1.38-5.54-4.36 1.17-5.54-1.38-.78-1.69 4.46-5.23 8.3-7.9 0 0 1.96-1.3 3.31-1.3l.2-.09-.01.1c.28 0 .57.04.86.12l.42.1a4.39 4.39 0 0 1 3.2 5.32l-3.27 13.21-1.48 5.97c-1.37 5.54 4.27-1.2 5.45 1.35.77 1.69-4.56 5.2-8.4 7.87zm8.3-41.3a6.15 6.15 0 1 1-11.93-2.95 6.15 6.15 0 0 1 11.93 2.96z"/></svg>